<?xml version="1.0" encoding="utf-8"?>
<!-- Generator: Adobe Illustrator 24.0.1, SVG Export Plug-In . SVG Version: 6.00 Build 0)  -->
<svg version="1.1" id="Capa_1" xmlns="http://www.w3.org/2000/svg" xmlns:xlink="http://www.w3.org/1999/xlink" x="0px" y="0px"
	 width="260.3px" height="77.3px" viewBox="0 0 260.3 77.3" style="enable-background:new 0 0 260.3 77.3;" xml:space="preserve">
<style type="text/css">
	.st0{fill:#FFFFFF;}
</style>
<g>
	<path class="st0" d="M5.3,25.3c0-11.1,8.2-19.6,19.6-19.6c6.8,0,12.9,3.4,16.1,8.7l-7.4,4.3c-1.7-2.9-4.9-4.6-8.7-4.6
		c-6.7,0-11,4.5-11,11.2s4.3,11.2,11,11.2c3.8,0,7.1-1.7,8.7-4.6l7.4,4.3c-3.2,5.3-9.2,8.7-16.1,8.7C13.5,44.9,5.3,36.4,5.3,25.3z"
		/>
	<path class="st0" d="M70.7,17.3v26.9h-8.1v-2.5c-1.5,2-4.1,3.3-7.7,3.3c-5.4,0-10.1-3.9-10.1-11.1V17.3h8.1v15.3
		c0,3.3,2.1,4.9,4.7,4.9c3,0,5-1.7,5-5.5V17.3H70.7z"/>
	<path class="st0" d="M90.3,37.7c2.2,0,4.1-0.9,5.2-2l6.5,3.7c-2.6,3.7-6.6,5.5-11.7,5.5c-9.2,0-14.9-6.2-14.9-14.2
		s5.8-14.2,14.3-14.2c7.9,0,13.7,6.1,13.7,14.2c0,1.1-0.1,2.2-0.3,3.2H83.8C84.8,36.7,87.3,37.7,90.3,37.7z M95.2,27.9
		c-0.9-3.1-3.3-4.2-5.7-4.2c-3.1,0-5.1,1.5-5.9,4.2H95.2z"/>
	<path class="st0" d="M133.6,27.7v16.5h-8.1V28.8c0-3.3-2.1-4.9-4.7-4.9c-3,0-5,1.7-5,5.5v14.7h-8.1V17.3h8.1v2.5
		c1.5-2,4.1-3.3,7.7-3.3C129,16.5,133.6,20.4,133.6,27.7z"/>
	<path class="st0" d="M149.3,25v9.5c0,2.3,2,2.5,5.5,2.3v7.3c-10.5,1.1-13.6-2.1-13.6-9.6V25H137v-7.7h4.3v-5.1l8.1-2.4v7.5h5.5V25
		H149.3z"/>
	<path class="st0" d="M186.5,17.3v26.9h-8.1v-2.5c-1.8,2-4.4,3.3-8,3.3c-7,0-12.9-6.2-12.9-14.2s5.8-14.2,12.9-14.2
		c3.6,0,6.2,1.2,8,3.3v-2.5H186.5z M178.4,30.7c0-4-2.7-6.6-6.4-6.6s-6.4,2.5-6.4,6.6c0,4,2.7,6.6,6.4,6.6S178.4,34.8,178.4,30.7z"
		/>
	<path class="st0" d="M221.3,30.7c0,8-5.8,14.2-12.9,14.2c-3.6,0-6.2-1.2-8-3.3v13.3h-8.1V17.3h8.1v2.5c1.8-2,4.4-3.3,8-3.3
		C215.5,16.5,221.3,22.7,221.3,30.7z M213.3,30.7c0-4-2.7-6.6-6.4-6.6c-3.7,0-6.4,2.5-6.4,6.6c0,4,2.7,6.6,6.4,6.6
		C210.6,37.3,213.3,34.8,213.3,30.7z"/>
	<path class="st0" d="M254.8,30.7c0,8-5.8,14.2-12.9,14.2c-3.6,0-6.2-1.2-8-3.3v13.3h-8.1V17.3h8.1v2.5c1.8-2,4.4-3.3,8-3.3
		C249,16.5,254.8,22.7,254.8,30.7z M246.7,30.7c0-4-2.7-6.6-6.4-6.6s-6.4,2.5-6.4,6.6c0,4,2.7,6.6,6.4,6.6S246.7,34.8,246.7,30.7z"
		/>
</g>
<g>
	<path class="st0" d="M23,69.5v0.9h-7.7V57.3h1.1v12.2H23z"/>
	<path class="st0" d="M25,56.7h1v13.7h-1V56.7z"/>
	<path class="st0" d="M38.5,65.8c0,0.1,0,0.3,0,0.5h-9.1c0.2,2.1,2,3.5,4.2,3.5c1.6,0,2.9-0.7,3.5-1.7l0.9,0.5
		c-0.8,1.3-2.4,2.1-4.4,2.1c-3.1,0-5.3-2.1-5.3-4.9c0-2.8,2.1-4.9,5.2-4.9C36.6,60.8,38.5,63.2,38.5,65.8z M29.4,65.3h8.1
		c-0.2-2.3-1.9-3.6-3.9-3.6C31.3,61.8,29.6,63.2,29.4,65.3z"/>
	<path class="st0" d="M50.8,61.1V70c0,2.8-2.2,4.4-5,4.4c-2.3,0-4-0.9-4.7-2.3l0.9-0.5c0.5,1,1.6,1.8,3.8,1.8c2.5,0,4-1.4,4-3.5
		v-1.7c-0.8,1.4-2.4,2.4-4.3,2.4c-2.9,0-5.2-2.1-5.2-4.9c0-2.8,2.3-4.9,5.2-4.9c1.9,0,3.5,0.9,4.3,2.4v-2.2H50.8z M49.8,65.8
		c0-2.2-1.9-4-4.2-4c-2.4,0-4.2,1.8-4.2,4c0,2.2,1.9,4,4.2,4C47.9,69.8,49.8,68,49.8,65.8z"/>
	<path class="st0" d="M63.7,61.1v9.4h-1v-2.1c-0.8,1.4-2.4,2.3-4.3,2.3c-2.8,0-5.2-2.1-5.2-4.9c0-2.8,2.3-4.9,5.2-4.9
		c1.9,0,3.5,0.9,4.3,2.3v-2.1H63.7z M62.7,65.8c0-2.2-1.8-4-4.2-4c-2.4,0-4.2,1.8-4.2,4c0,2.2,1.9,4,4.2,4
		C60.8,69.8,62.7,68,62.7,65.8z"/>
	<path class="st0" d="M81.9,61.1v9.4h-1v-2.1c-0.8,1.4-2.4,2.3-4.3,2.3c-2.8,0-5.2-2.1-5.2-4.9c0-2.8,2.3-4.9,5.2-4.9
		c1.9,0,3.5,0.9,4.3,2.3v-2.1H81.9z M80.9,65.8c0-2.2-1.8-4-4.2-4c-2.4,0-4.2,1.8-4.2,4c0,2.2,1.9,4,4.2,4
		C79.1,69.8,80.9,68,80.9,65.8z"/>
	<path class="st0" d="M97.5,70.5h-1V62h-4.4v8.5h-1V62h-1.7v-0.9h1.7v-0.5c0-2.3,1.4-3.5,4-3.5c0.7,0,1.3,0.1,1.9,0.2v0.9
		C96.4,58,95.8,58,95.1,58c-2,0-3,0.7-3,2.6v0.5h5.4V70.5z"/>
	<path class="st0" d="M109.1,64.6v5.8h-1v-5.8c0-1.7-1.1-2.9-2.9-2.9c-2,0-3.5,1.2-3.5,3.7v5h-1v-9.4h1v1.8c0.8-1.4,2-2,3.6-2
		C107.6,60.8,109.1,62.3,109.1,64.6z"/>
	<path class="st0" d="M127.1,57.3v13.2h-1v-2.2c-0.8,1.4-2.4,2.4-4.3,2.4c-2.9,0-5.2-2.1-5.2-4.9c0-2.8,2.3-4.9,5.2-4.9
		c1.9,0,3.5,0.9,4.3,2.4v-5.9H127.1z M126.1,65.8c0-2.2-1.9-4-4.2-4c-2.4,0-4.2,1.8-4.2,4c0,2.2,1.9,4,4.2,4
		C124.2,69.8,126.1,68,126.1,65.8z"/>
	<path class="st0" d="M139.6,65.8c0,0.1,0,0.3,0,0.5h-9.1c0.2,2.1,2,3.5,4.2,3.5c1.6,0,2.9-0.7,3.5-1.7l0.9,0.5
		c-0.8,1.3-2.4,2.1-4.4,2.1c-3.1,0-5.3-2.1-5.3-4.9c0-2.8,2.1-4.9,5.2-4.9C137.7,60.8,139.6,63.2,139.6,65.8z M130.5,65.3h8.1
		c-0.2-2.3-1.9-3.6-3.9-3.6C132.4,61.8,130.7,63.2,130.5,65.3z"/>
	<path class="st0" d="M161.6,64.5v6h-1v-6c0-1.8-1.1-2.7-2.7-2.7c-1.7,0-3,1.1-3,3.5v5.2h-1v-6c0-1.8-1-2.7-2.6-2.7
		c-1.6,0-3.1,1.1-3.1,3.5v5.2h-1v-9.4h1v1.6c0.7-1.3,1.9-1.8,3.2-1.8c1.5,0,2.6,0.7,3.1,1.9c0.7-1.3,2-1.9,3.3-1.9
		C160.1,60.8,161.6,62.1,161.6,64.5z"/>
	<path class="st0" d="M173.9,65.8c0,0.1,0,0.3,0,0.5h-9.1c0.2,2.1,2,3.5,4.2,3.5c1.6,0,2.9-0.7,3.5-1.7l0.9,0.5
		c-0.8,1.3-2.4,2.1-4.4,2.1c-3.1,0-5.3-2.1-5.3-4.9c0-2.8,2.1-4.9,5.2-4.9C172,60.8,173.9,63.2,173.9,65.8z M164.8,65.3h8.1
		c-0.2-2.3-1.9-3.6-3.9-3.6C166.7,61.8,165,63.2,164.8,65.3z"/>
	<path class="st0" d="M182.6,68c0,1.5-1.4,2.7-3.6,2.7c-2,0-3.3-0.9-3.8-2.1l0.9-0.5c0.4,1,1.4,1.7,2.9,1.7c1.4,0,2.6-0.6,2.6-1.8
		c0-2.6-6.1-1.1-6.1-4.5c0-1.5,1.4-2.7,3.4-2.7c1.6,0,2.9,0.7,3.4,1.9l-0.8,0.5c-0.4-1-1.5-1.4-2.6-1.4c-1.3,0-2.4,0.6-2.4,1.8
		C176.5,66,182.6,64.6,182.6,68z"/>
</g>
</svg>
